<?xml version="1.0" standalone="no"?>
<!DOCTYPE svg PUBLIC "-//W3C//DTD SVG 20010904//EN"
 "http://www.w3.org/TR/2001/REC-SVG-20010904/DTD/svg10.dtd">
<svg version="1.0" xmlns="http://www.w3.org/2000/svg"
 width="267.000000pt" height="253.000000pt" viewBox="0 0 267.000000 253.000000"
 preserveAspectRatio="xMidYMid meet">

<g transform="translate(0.000000,253.000000) scale(0.100000,-0.100000)"
fill="#7A9ACB" stroke="none">
<path d="M270 1950 l0 -430 70 0 70 0 0 409 0 409 -62 21 c-34 12 -66 21 -70
21 -4 0 -8 -193 -8 -430z"/>
<path d="M2288 2358 l-58 -20 0 -409 0 -409 70 0 70 0 0 430 c0 338 -3 430
-12 429 -7 0 -39 -10 -70 -21z"/>
<path d="M1215 2168 c-174 -33 -335 -184 -390 -365 -21 -69 -19 -214 4 -289
57 -188 222 -330 419 -360 l42 -7 0 -72 c0 -45 -6 -84 -15 -101 -11 -22 -15
-64 -15 -169 0 -165 8 -190 60 -190 52 0 60 25 60 188 0 105 -4 147 -15 172
-11 22 -15 54 -13 101 l3 68 35 8 c178 41 286 113 371 246 45 71 69 165 69
268 0 146 -46 257 -147 360 -123 124 -293 175 -468 142z m226 -74 c218 -64
354 -277 319 -499 -23 -144 -114 -266 -248 -332 -75 -37 -78 -38 -192 -38
-114 0 -117 1 -192 38 -223 110 -315 368 -210 591 93 196 318 300 523 240z"/>
<path d="M1302 2052 c-8 -5 -12 -20 -10 -33 3 -20 12 -25 69 -35 158 -29 249
-121 281 -284 11 -54 17 -66 35 -68 54 -8 49 94 -10 217 -31 63 -106 134 -179
170 -65 31 -163 48 -186 33z"/>
<path d="M500 1605 l0 -495 23 -10 c12 -5 126 -32 252 -60 127 -28 236 -53
243 -55 6 -3 12 -2 12 0 0 3 -90 50 -200 105 l-200 100 0 444 0 444 -50 11
c-28 6 -58 11 -65 11 -13 0 -15 -69 -15 -495z"/>
<path d="M2053 2088 l-43 -9 0 -445 0 -444 -200 -100 c-110 -55 -200 -102
-200 -104 0 -2 17 0 38 5 20 4 129 29 242 54 113 25 215 50 228 55 l22 10 0
495 0 495 -22 -1 c-13 -1 -42 -5 -65 -11z"/>
<path d="M270 1190 l0 -290 402 0 c221 0 399 2 397 4 -2 2 -119 27 -259 55
-140 28 -288 59 -327 67 l-73 16 0 219 0 219 -70 0 -70 0 0 -290z"/>
<path d="M2230 1261 l0 -220 -72 -15 c-40 -9 -163 -34 -273 -56 -364 -74 -371
-68 83 -69 l402 -1 0 290 0 290 -70 0 -70 0 0 -219z"/>
<path d="M970 296 c0 -183 5 -198 68 -216 30 -8 34 -7 42 16 12 32 13 44 1 44
-5 0 -17 7 -25 16 -13 13 -16 42 -16 160 l0 144 -35 0 -35 0 0 -164z"/>
<path d="M1110 301 c0 -157 0 -160 26 -190 34 -41 81 -43 90 -5 6 25 -2 37
-31 47 -6 2 -11 66 -13 155 l-3 152 -35 0 -34 0 0 -159z"/>
<path d="M745 331 c-55 -24 -88 -95 -74 -159 15 -70 98 -120 156 -93 18 8 29
9 39 1 7 -6 25 -10 41 -8 l28 3 3 123 c2 94 0 122 -10 123 -7 0 -22 3 -33 5
-46 11 -131 13 -150 5z m99 -77 c19 -18 21 -85 4 -102 -17 -17 -68 -15 -90 5
-22 20 -23 70 -1 95 20 22 66 24 87 2z"/>
<path d="M1321 322 c-39 -21 -71 -73 -71 -115 0 -93 99 -165 173 -126 16 9 22
9 25 0 2 -6 19 -11 38 -11 l34 0 0 125 c0 69 -3 125 -7 126 -5 0 -17 2 -28 4
-93 16 -131 16 -164 -3z m111 -69 c22 -20 24 -76 2 -97 -22 -23 -81 -21 -94 3
-15 29 -12 77 6 95 20 21 63 20 86 -1z"/>
<path d="M1550 333 c0 -4 23 -66 52 -136 49 -119 54 -128 77 -125 20 2 29 14
48 62 12 33 27 64 32 69 5 5 20 -21 37 -63 25 -64 30 -71 52 -68 22 3 32 19
77 130 29 70 50 130 47 133 -3 3 -20 5 -37 5 -31 0 -34 -4 -55 -62 -13 -35
-26 -67 -30 -71 -4 -5 -18 18 -30 50 -13 32 -28 64 -33 71 -15 20 -47 14 -56
-10 -5 -13 -19 -45 -31 -73 l-22 -50 -27 70 c-26 68 -28 70 -64 73 -20 2 -37
0 -37 -5z"/>
</g>
</svg>
